<?xml version="1.0" standalone="no"?>
<!DOCTYPE svg PUBLIC "-//W3C//DTD SVG 20010904//EN"
 "http://www.w3.org/TR/2001/REC-SVG-20010904/DTD/svg10.dtd">
<svg version="1.0" xmlns="http://www.w3.org/2000/svg"
 width="512.000000pt" height="525.000000pt" viewBox="0 0 512.000000 525.000000"
 preserveAspectRatio="xMidYMid meet">

<g transform="translate(0.000000,525.000000) scale(0.100000,-0.100000)"
fill="#000000" stroke="none">
<path d="M425 4338 c12 -39 23 -43 136 -44 118 -2 134 -8 147 -55 l7 -29 29
23 c27 22 28 25 15 52 -8 16 -29 40 -48 52 -31 21 -45 23 -163 23 l-129 0 6
-22z"/>
<path d="M296 4277 c-3 -12 -6 -86 -6 -165 0 -223 9 -232 240 -232 225 0 240
14 240 220 l0 122 -31 -26 c-30 -25 -30 -27 -32 -127 -3 -132 1 -129 -179
-129 -182 0 -178 -4 -178 161 0 91 -4 129 -16 155 -21 44 -30 49 -38 21z"/>
<path d="M1030 4120 l0 -60 600 0 600 0 0 60 0 60 -600 0 -600 0 0 -60z"/>
<path d="M1030 3290 l0 -60 600 0 600 0 0 60 0 60 -600 0 -600 0 0 -60z"/>
<path d="M1030 2460 l0 -60 600 0 600 0 0 60 0 60 -600 0 -600 0 0 -60z"/>
<path d="M1030 1630 l0 -60 600 0 600 0 0 60 0 60 -600 0 -600 0 0 -60z"/>
</g>
</svg>
